<svg xmlns="http://www.w3.org/2000/svg" height="100%" width="100%" xmlns:xlink="http://www.w3.org/1999/xlink" version="1.1" id="Layer_1" x="0px" y="0px" viewBox="0 0 62.6 47.8" style="enable-background:new 0 0 62.6 47.8;" xml:space="preserve">
  <style type="text/css">
    .st0 {
      opacity: 0.88;
    }

    .st1 {
      fill: #FFFFFF;
    }
  </style>
  <g transform="translate(-5791.014 -8979.185)">
    <g transform="translate(5791.014 8979.185)">
      <g transform="translate(0 0)">
        <g transform="translate(41.829 14.541)" class="st0">
          <path class="st1" d="M3,3C-1,7.1-1,13.7,3,17.8c1.9,2,4.6,3.1,7.4,3c5.5,0,10.1-4.3,10.4-9.9c0-0.2,0-0.4,0-0.5v-0.3 C20.7,4.4,15.9-0.2,10.1,0C7.5,0.1,4.9,1.2,3,3z M10.4,6.3c2.3,0,4.2,1.8,4.2,4.1c0,1.1-0.4,2.2-1.2,3c-0.8,0.8-1.9,1.2-3,1.2 c-1.1,0-2.1-0.4-2.9-1.2c-1.6-1.6-1.6-4.3,0-5.9C8.3,6.7,9.3,6.2,10.4,6.3L10.4,6.3z"></path>
        </g>
        <g transform="translate(41.829 0)" class="st0">
          <path class="st1" d="M20.8,10.4v-0.3C20.7,4.4,15.9-0.1,10.1,0C4.4,0.1-0.1,4.9,0,10.7c0.1,2.7,1.2,5.2,3,7.1 c1.9,2,4.6,3.1,7.4,3c5.5,0,10.1-4.3,10.4-9.9C20.8,10.8,20.8,10.6,20.8,10.4z M13.4,7.5c1.6,1.6,1.6,4.2,0,5.9 c-0.8,0.8-1.9,1.2-3,1.2c-1.1,0-2.1-0.4-2.9-1.2c-1.6-1.6-1.6-4.2,0-5.9c0.8-0.8,1.8-1.2,2.9-1.2C11.5,6.2,12.6,6.7,13.4,7.5 L13.4,7.5z"></path>
        </g>
        <g transform="translate(20.915 14.541)" class="st0">
          <path class="st1" d="M3,3C-1,7.1-1,13.7,3,17.8c1.9,2,4.6,3.1,7.4,3c5.5,0,10.1-4.3,10.4-9.9c0-0.2,0-0.4,0-0.5v-0.3 C20.7,4.4,15.9-0.2,10.1,0C7.5,0.1,4.9,1.2,3,3z M10.4,6.3c2.3,0,4.2,1.8,4.2,4.1c0,1.1-0.4,2.2-1.2,3c-0.8,0.8-1.9,1.2-3,1.2 c-1.1,0-2.1-0.4-2.9-1.2c-1.6-1.6-1.6-4.3,0-5.9C8.3,6.7,9.3,6.2,10.4,6.3L10.4,6.3z"></path>
        </g>
        <g transform="translate(20.915)" class="st0">
          <path class="st1" d="M20.8,10.4v-0.3C20.7,4.4,15.9-0.1,10.1,0C4.4,0.2-0.1,4.9,0,10.7c0.1,2.7,1.2,5.2,3,7.1 c1.9,2,4.6,3.1,7.4,3c5.5,0,10.1-4.3,10.4-9.9C20.8,10.8,20.8,10.6,20.8,10.4z M13.4,7.5c1.6,1.6,1.6,4.2,0,5.9 c-0.8,0.8-1.9,1.2-3,1.2c-1.1,0-2.1-0.4-2.9-1.2c-1.6-1.6-1.6-4.2,0-5.9c0.8-0.8,1.8-1.2,2.9-1.2C11.5,6.2,12.6,6.7,13.4,7.5 L13.4,7.5z"></path>
        </g>
        <g transform="translate(0 14.541)" class="st0">
          <path class="st1" d="M3,3C-1,7.1-1,13.7,3,17.8c1.9,2,4.6,3.1,7.4,3c5.5,0,10.1-4.3,10.4-9.9c0-0.2,0-0.4,0-0.5v-0.3 C20.7,4.4,15.9-0.2,10.1,0C7.5,0.1,4.9,1.2,3,3z M10.4,6.3c2.3,0,4.2,1.8,4.2,4.1c0,1.1-0.4,2.2-1.2,3c-0.8,0.8-1.9,1.2-3,1.2 c-1.1,0-2.1-0.4-2.9-1.2c-1.6-1.6-1.6-4.3,0-5.9C8.3,6.7,9.3,6.2,10.4,6.3L10.4,6.3z"></path>
        </g>
        <g class="st0">
          <path class="st1" d="M20.8,10.4v-0.3C20.7,4.4,15.9-0.2,10.1-0.1C4.3,0-0.3,4.8-0.1,10.6S4.8,21,10.6,20.8 c5.5-0.1,9.9-4.4,10.2-9.9C20.8,10.8,20.8,10.6,20.8,10.4z M13.4,7.5c1.6,1.6,1.6,4.2,0,5.9c-0.8,0.8-1.9,1.2-3,1.2 c-1.1,0-2.1-0.4-2.9-1.2c-1.6-1.6-1.6-4.2,0-5.9c0.8-0.8,1.8-1.2,2.9-1.2C11.5,6.2,12.6,6.7,13.4,7.5L13.4,7.5z"></path>
        </g>
      </g>
    </g>
  </g>
  <g id="_x38_88.ro_x5F_white_00000022543820565580005090000008092619194245008805_">
    <g>
      <path class="st1" d="M53.3,47.5h-1.9v-1c-0.5,0.7-1.2,1.2-2.3,1.2c-2.1,0-3.6-1.6-3.6-3.7v0c0-2.1,1.4-3.7,3.6-3.7 c1.1,0,1.8,0.4,2.3,1.2v-3.8h1.9V47.5z M51.2,43.9c0-1.1-0.8-1.9-1.8-1.9c-1.1,0-1.9,0.8-1.9,1.9v0c0,1.1,0.8,1.9,1.8,1.9 C50.3,45.8,51.2,45,51.2,43.9L51.2,43.9z"></path>
      <path class="st1" d="M56.4,44.3c0.1,1,0.8,1.6,1.8,1.6c0.8,0,1.3-0.4,1.7-1.1l1.5,0.8c-0.6,1-1.5,1.9-3.2,1.9 c-2.1,0-3.7-1.6-3.7-3.7v0c0-2.1,1.5-3.7,3.6-3.7c2.4,0,3.5,1.9,3.5,3.6v0.6H56.4z M59.7,43.1c0-0.5-0.4-1.3-1.6-1.3 c-0.9,0-1.4,0.6-1.6,1.3H59.7z"></path>
    </g>
    <g>
      <path class="st1" d="M43.1,46.3c0-0.5,0.5-1.1,1.1-1.1c0.6,0,1.1,0.5,1.1,1.1c0,0.6-0.5,1.1-1.1,1.1 C43.6,47.4,43.1,46.9,43.1,46.3z"></path>
    </g>
  </g>
</svg>